<?xml version="1.0" standalone="no"?>
<!DOCTYPE svg PUBLIC "-//W3C//DTD SVG 20010904//EN"
 "http://www.w3.org/TR/2001/REC-SVG-20010904/DTD/svg10.dtd">
<svg version="1.0" xmlns="http://www.w3.org/2000/svg"
 width="2816.000000pt" height="1536.000000pt" viewBox="0 0 2816.000000 1536.000000"
 preserveAspectRatio="xMidYMid meet">
<metadata>
Created by potrace 1.16, written by Peter Selinger 2001-2019
</metadata>
<g transform="translate(0.000000,1536.000000) scale(0.100000,-0.100000)"
fill="#000000" stroke="none">
<path d="M13690 15270 c-377 -23 -865 -98 -1215 -186 -214 -54 -555 -157 -694
-210 -80 -31 -182 -68 -226 -84 -63 -21 -396 -164 -414 -177 -2 -1 1 -8 7 -15
6 -7 71 -123 145 -258 75 -135 142 -253 149 -263 12 -18 15 -17 58 6 92 51
518 215 720 277 58 18 130 41 160 51 81 26 196 55 360 90 583 124 855 154
1395 153 566 0 855 -35 1471 -178 83 -19 184 -46 225 -60 41 -14 133 -43 204
-65 181 -54 533 -190 676 -262 68 -34 64 -37 136 101 51 98 96 179 187 336
l53 92 -96 42 c-295 130 -584 238 -835 311 -94 28 -198 59 -231 69 -136 43
-612 141 -820 170 -367 50 -511 60 -890 64 -209 3 -445 1 -525 -4z"/>
<path d="M18205 14520 c-166 -14 -319 -63 -451 -146 -156 -98 -264 -210 -357
-370 -69 -118 -127 -337 -127 -480 0 -129 47 -352 94 -442 9 -17 16 -37 16
-44 0 -12 -132 -157 -359 -393 -53 -55 -121 -127 -151 -160 -77 -85 -334 -358
-466 -495 -61 -63 -133 -140 -159 -170 -26 -30 -91 -100 -144 -155 -54 -55
-121 -127 -151 -160 -29 -33 -108 -116 -174 -185 -67 -69 -245 -258 -396 -420
-151 -162 -315 -338 -365 -390 -49 -53 -126 -134 -169 -180 -44 -47 -111 -119
-150 -160 -39 -41 -83 -90 -97 -109 l-27 -34 -65 32 c-114 56 -240 81 -408 81
-160 0 -230 -13 -371 -70 l-78 -32 -26 21 c-14 11 -82 80 -151 153 -70 73
-170 178 -222 233 -53 55 -120 127 -150 160 -29 33 -90 98 -135 145 -45 47
-115 121 -156 165 -41 44 -147 157 -235 250 -89 94 -184 195 -210 225 -27 30
-88 96 -135 145 -47 50 -110 117 -140 150 -106 114 -544 580 -639 680 -53 55
-166 174 -251 265 -85 91 -186 199 -225 240 -38 41 -86 90 -107 110 l-36 35
38 99 c62 157 72 207 77 366 5 160 -13 284 -61 400 -91 226 -272 427 -477 530
-161 82 -265 105 -469 105 -146 0 -177 -4 -265 -27 -130 -34 -269 -102 -366
-178 -82 -65 -194 -188 -242 -269 -98 -161 -156 -402 -143 -586 11 -145 47
-277 112 -407 19 -37 34 -72 34 -79 0 -6 -48 -71 -108 -146 -323 -407 -351
-442 -557 -707 -44 -57 -125 -161 -180 -231 -140 -179 -211 -270 -324 -420
-54 -71 -156 -202 -226 -290 -116 -145 -244 -310 -350 -451 -22 -29 -92 -119
-155 -200 -63 -81 -150 -193 -193 -248 -122 -159 -211 -273 -290 -373 -85
-108 -173 -222 -257 -330 -33 -43 -121 -157 -196 -253 -74 -96 -192 -248 -260
-337 -69 -89 -142 -180 -162 -203 l-37 -40 -80 26 c-111 36 -171 44 -310 45
-252 1 -494 -97 -687 -279 -162 -153 -245 -307 -293 -544 -23 -111 -16 -321
13 -430 46 -171 122 -307 241 -431 197 -205 458 -317 743 -318 156 -1 296 29
414 89 l41 21 194 -210 c107 -116 253 -275 324 -353 72 -78 256 -277 410 -442
154 -165 302 -324 330 -354 88 -98 397 -431 510 -550 198 -209 349 -372 404
-434 29 -34 79 -88 110 -121 31 -33 103 -112 161 -175 105 -114 253 -275 529
-575 211 -229 231 -251 231 -260 0 -5 -9 -18 -19 -29 -24 -26 -96 -239 -112
-329 -19 -111 -7 -304 26 -412 103 -347 353 -593 710 -702 83 -25 104 -27 265
-27 150 -1 188 2 264 22 365 92 646 382 738 762 29 116 28 311 -1 433 -60 253
-217 480 -426 615 -111 72 -203 119 -253 128 l-32 6 2 1966 3 1966 105 43
c108 44 254 136 295 185 l23 27 106 -62 c139 -82 334 -194 410 -235 33 -19
115 -66 181 -106 66 -40 185 -109 265 -154 80 -44 170 -95 201 -114 32 -18 72
-42 90 -52 19 -11 68 -40 109 -64 41 -24 152 -87 245 -139 94 -53 181 -103
195 -113 14 -9 95 -57 180 -105 85 -48 196 -111 245 -140 50 -29 95 -54 100
-56 6 -2 39 -22 73 -44 70 -44 65 -27 43 -160 -65 -375 162 -816 516 -1002
105 -55 263 -109 364 -124 94 -13 249 -7 350 15 216 47 468 210 599 386 186
251 244 564 160 863 -17 60 -40 127 -51 149 -11 22 -19 48 -17 57 2 10 68 80
148 156 140 133 258 247 595 575 88 86 259 250 380 365 231 221 400 384 754
731 119 115 272 264 341 330 140 134 187 179 392 382 l145 142 44 -24 c24 -13
73 -34 109 -47 36 -12 68 -25 71 -28 4 -3 9 -673 13 -1487 5 -1181 4 -1484 -6
-1492 -7 -5 -33 -15 -58 -22 -54 -15 -157 -65 -231 -112 -267 -173 -443 -514
-432 -838 10 -313 118 -545 347 -749 88 -79 185 -139 278 -172 35 -12 68 -26
75 -31 6 -5 60 -18 120 -28 227 -41 427 -17 619 75 150 71 216 117 311 219
184 197 273 417 273 678 1 256 -57 431 -217 650 -42 57 -170 170 -233 204 -25
14 -61 35 -80 47 -19 12 -70 36 -114 53 l-78 32 -2 1485 -1 1485 95 37 c163
65 315 180 421 320 41 54 119 194 133 238 3 9 15 17 27 17 12 0 182 -18 378
-39 196 -22 489 -54 651 -70 162 -17 365 -40 450 -51 157 -20 595 -68 815 -90
221 -22 220 -22 223 -50 7 -61 57 -201 95 -265 90 -155 244 -310 392 -394 284
-163 676 -174 964 -29 130 66 195 115 293 224 167 186 253 397 264 649 14 333
-164 674 -450 860 -186 121 -332 165 -558 165 -212 0 -345 -31 -493 -115 -43
-25 -91 -45 -107 -45 -21 0 -58 23 -141 91 -157 126 -255 204 -382 304 -60 47
-163 130 -228 183 -65 53 -133 108 -151 122 -18 14 -100 79 -182 144 -82 66
-178 142 -214 171 -36 28 -99 78 -140 110 -41 33 -122 96 -180 139 -58 44
-173 134 -255 200 -83 67 -177 141 -209 166 -59 44 -243 190 -519 410 -77 62
-143 108 -149 104 -7 -4 -8 -3 -4 4 4 6 -24 33 -66 65 -40 30 -83 65 -95 78
l-22 25 18 54 c31 90 41 169 41 311 0 208 -38 346 -143 519 -196 322 -565 510
-942 480z m734 -1877 c38 -32 124 -101 191 -153 67 -52 185 -146 263 -209 217
-173 425 -338 523 -416 49 -38 176 -139 283 -225 107 -85 217 -173 245 -194
28 -22 80 -62 116 -91 36 -28 151 -118 255 -200 105 -82 242 -192 306 -245 63
-52 160 -129 213 -170 54 -41 128 -100 165 -130 36 -30 110 -91 164 -134 54
-43 96 -80 95 -81 -4 -4 -174 14 -618 64 -201 22 -489 54 -640 71 -151 17
-372 41 -490 55 -216 25 -271 31 -565 61 -88 9 -164 19 -168 24 -4 4 -15 35
-22 68 -19 81 -93 227 -160 316 -73 96 -186 196 -297 262 -51 30 -96 54 -102
54 -5 0 -37 11 -70 24 -107 43 -224 59 -381 53 -274 -10 -459 -88 -659 -278
-106 -100 -153 -162 -209 -274 -56 -111 -72 -158 -91 -271 -31 -175 -13 -360
53 -545 l31 -87 -33 -34 c-17 -19 -79 -79 -137 -133 -58 -54 -182 -173 -275
-264 -94 -91 -216 -209 -270 -260 -55 -52 -199 -192 -320 -311 -121 -119 -353
-344 -515 -500 -162 -157 -362 -350 -445 -430 -82 -81 -237 -229 -343 -331
-107 -101 -246 -235 -310 -296 -65 -62 -122 -113 -129 -113 -6 0 -47 15 -91
34 -281 120 -594 108 -871 -34 -53 -27 -125 -72 -159 -100 l-63 -51 -47 28
c-26 15 -60 34 -77 43 -43 23 -194 110 -235 135 -49 30 -163 95 -315 180 -71
40 -166 94 -210 120 -84 51 -463 271 -575 335 -82 46 -112 63 -235 135 -55 32
-156 91 -225 130 -69 40 -150 87 -180 105 -70 42 -191 110 -298 167 l-83 44 8
52 c5 29 8 120 7 202 -1 132 -4 161 -27 237 -29 95 -97 241 -146 312 -113 163
-310 312 -493 372 l-58 19 0 1375 c0 1057 3 1379 12 1388 7 7 20 12 30 12 10
0 44 14 77 31 52 27 62 30 79 18 10 -8 72 -70 136 -139 65 -69 128 -134 140
-145 12 -11 71 -74 131 -140 60 -66 145 -158 190 -205 74 -79 143 -153 386
-417 52 -56 182 -194 289 -307 107 -113 249 -264 315 -335 67 -70 186 -197
265 -282 79 -85 205 -219 280 -299 74 -79 180 -191 235 -249 55 -58 136 -144
180 -190 44 -46 119 -124 167 -174 l87 -89 -36 -76 c-53 -113 -83 -223 -96
-343 -24 -238 61 -515 218 -707 196 -239 498 -384 805 -384 84 -1 139 5 204
21 325 79 563 266 706 555 76 153 93 229 94 421 1 146 -2 169 -27 259 -15 54
-44 131 -65 171 l-38 73 65 69 c113 118 364 385 432 457 165 178 654 697 839
891 64 66 145 152 181 190 304 326 803 858 1014 1080 83 88 182 195 220 238
37 42 71 77 77 77 5 0 22 -7 38 -15 51 -26 173 -62 274 -80 120 -22 246 -17
390 15 102 23 251 82 251 99 0 5 4 13 9 18 5 5 6 3 2 -4 -11 -19 1 -16 42 12
20 14 40 25 43 25 4 0 39 -26 78 -57z m-9354 -78 l60 -24 3 -1379 2 -1379 -77
-28 c-106 -37 -159 -65 -239 -126 -209 -157 -324 -332 -384 -582 -11 -45 -20
-94 -20 -109 0 -30 6 -28 -145 -62 -130 -29 -809 -189 -1045 -246 -91 -21
-219 -51 -285 -65 -160 -34 -273 -61 -430 -101 -71 -18 -240 -58 -375 -88
-135 -30 -264 -62 -286 -70 l-42 -14 -36 37 c-42 43 -44 56 -12 90 12 15 85
107 160 206 76 99 173 225 217 280 118 148 217 277 283 369 32 44 62 83 66 86
3 3 30 36 60 74 29 38 61 79 71 90 47 55 294 374 310 400 9 16 38 54 63 85
101 125 327 413 406 516 46 61 98 128 117 150 18 22 48 60 67 85 199 259 299
388 396 510 33 41 73 93 89 115 16 22 92 119 168 216 289 370 410 526 447 579
22 30 60 80 86 110 26 30 85 105 130 165 46 61 91 115 99 122 9 7 16 12 16 13
0 0 27 -11 60 -25z m-534 -4262 c117 -193 337 -372 536 -437 29 -10 55 -21 58
-26 3 -4 5 -889 5 -1966 l0 -1958 -91 -33 c-50 -18 -94 -33 -98 -33 -3 0 -40
39 -81 87 -41 48 -133 151 -205 229 -71 78 -175 192 -230 254 -55 62 -235 258
-400 435 -165 177 -345 371 -399 431 -161 177 -726 787 -914 987 -29 31 -57
55 -61 52 -5 -2 -19 8 -32 23 l-24 27 29 -25 c72 -62 2 18 -244 280 -388 413
-610 654 -610 663 0 5 16 45 36 90 54 121 84 224 84 290 0 69 -2 68 153 97 59
11 178 37 265 59 162 40 206 50 522 121 102 23 205 47 230 55 25 7 122 29 215
50 209 45 401 89 520 121 83 21 248 60 355 83 25 6 101 24 170 40 138 33 160
38 177 40 6 0 22 -16 34 -36z"/>
<path d="M21850 8322 c-80 -57 -203 -147 -275 -200 -395 -290 -562 -412 -715
-523 -69 -49 -168 -121 -220 -160 -52 -38 -131 -95 -175 -126 -44 -31 -129
-93 -190 -138 -383 -283 -469 -346 -542 -399 -45 -32 -80 -62 -78 -66 3 -4 49
-27 102 -50 203 -87 413 -183 548 -250 77 -38 183 -86 235 -107 151 -61 140
-43 97 -170 -84 -246 -180 -471 -360 -845 -312 -645 -732 -1277 -1232 -1852
-149 -172 -380 -411 -486 -502 -31 -27 -110 -96 -176 -154 -107 -94 -172 -148
-353 -292 -30 -24 -139 -102 -242 -173 -396 -275 -751 -472 -1171 -652 -1071
-457 -2148 -595 -3242 -417 -82 13 -177 31 -210 38 -33 8 -114 26 -180 41
-245 55 -711 203 -885 280 -41 19 -129 57 -195 86 -169 73 -424 201 -530 266
-59 37 -91 51 -93 43 -3 -7 -13 -21 -23 -31 -11 -11 -19 -21 -19 -24 0 -5
-164 -233 -212 -295 -57 -73 -108 -145 -108 -151 0 -7 125 -89 136 -89 3 0 18
-8 32 -18 15 -11 54 -34 87 -52 168 -92 295 -160 299 -160 3 0 78 -33 168 -74
90 -41 201 -91 248 -111 110 -48 606 -216 735 -249 531 -134 775 -173 1300
-207 207 -13 698 -7 890 11 327 30 496 54 680 95 61 13 166 36 235 50 315 66
872 249 1150 377 36 17 104 47 151 68 47 21 162 78 255 126 585 303 1094 652
1559 1069 268 240 662 645 649 666 -4 8 -3 9 4 5 21 -13 265 275 452 534 227
313 375 528 456 663 16 27 36 59 44 72 134 210 383 675 503 940 105 232 223
512 254 605 48 142 48 143 86 137 18 -3 149 -60 292 -127 143 -67 269 -126
280 -130 11 -4 110 -50 220 -103 268 -127 248 -123 240 -45 -7 69 -33 312 -40
368 -2 19 -11 100 -20 180 -8 80 -17 156 -20 170 -3 14 -30 248 -60 520 -79
714 -94 843 -110 955 -7 55 -26 213 -40 350 -14 138 -29 268 -33 290 l-7 40
-145 -103z"/>
</g>
</svg>
